<svg viewBox="0 0 150 50" xmlns="http://www.w3.org/2000/svg" xmlns:xlink="http://www.w3.org/1999/xlink"><style>text{font:700 14px Arial,sans-serif;fill:#ffd800;text-anchor:middle}#l text{font:700 66px Arial,sans-serif}#m text{font:700 85px Arial,sans-serif}@media (min-height:150px){#l #tb{font-size:44px}#l #tt{font:58px &apos;Arial Black&apos;,sans-serif}}text,textPath{dominant-baseline:central}</style><defs><filter id="g" x="-40%" y="-40%" width="180%" height="180%"><feGaussianBlur stdDeviation="10 10" result="r"/><feMerge><feMergeNode in="r"/><feMergeNode in="r"/><feMergeNode in="r"/><feMergeNode in="r"/></feMerge></filter><filter id="s" x="-20%" y="-20%" width="140%" height="140%"><feGaussianBlur stdDeviation="2 2" result="r"/><feOffset dx="4" dy="8"/></filter><filter id="e"><feConvolveMatrix order="8,8" divisor="1" kernelMatrix="1 0 0 0 0 0 0 0 0 1 0 0 0 0 0 0 0 0 1 0 0 0 0 0 0 0 0 1 0 0 0 0 0 0 0 0 1 0 0 0 0 0 0 0 0 1 0 0 0 0 0 0 0 0 1 0 0 0 0 0 0 0 0 1" in="SourceAlpha" result="B"/><feOffset dx="1" dy="1" in="B" result="O"/><feMerge><feMergeNode in="O"/><feMergeNode in="SourceGraphic"/></feMerge></filter><path d="M43 256a213 213 0 1 0 426 0" id="a"/><path d="M43 256a213 213 0 0 1 426 0" id="b"/><path d="M306 90c9 37 15 75 18 114v-1c-55-35-114-63-178-81 0 0 44-40 110-40 17 0 34 3 50 8" id="r"/></defs><rect width="150" height="50" rx="5" fill="#0056b3"/><g transform="matrix(.094 0 0 .094 .188 .094)" id="l"><circle cx="256" cy="256" r="248" fill="#0621C6" stroke="#fc0" stroke-width="10"/><circle cx="256" cy="256" r="180" fill="#FC0"/><use xlink:href="#r"/><use xlink:href="#r" transform="rotate(60 256.406 256.109)"/><use xlink:href="#r" transform="rotate(120 256.235 255.937)"/><use xlink:href="#r" transform="rotate(180 256 256)"/><use xlink:href="#r" transform="rotate(-120 255.937 256.235)"/><use xlink:href="#r" transform="rotate(-60 256.109 256.406)"/><text textLength="670" id="tb"><textPath xlink:href="#a" startOffset="50%">FIAT JUSTITIA</textPath></text><text textLength="500" id="tt"><textPath xlink:href="#b" startOffset="50%">IDENTIGRAF</textPath></text><g id="m"><text x="256" y="256" style="filter:url(#g);fill:khaki" transform="rotate(-30 256 256)">NEURO</text><text x="256" y="250" style="filter:url(#s);fill:orange" transform="rotate(-30 256 256)">NEURO</text><text x="256" y="256" style="filter:url(#e);fill:red" transform="rotate(-30 256 256)">NEURO</text></g></g><text x="95" y="10">«IDentigraF»</text><text x="95" y="25">система</text><text x="95" y="40">розпізнавання</text></svg>