<svg viewBox="0 0 512 512"
    xmlns="http://www.w3.org/2000/svg"
    xmlns:xlink="http://www.w3.org/1999/xlink">
    <style>#t:target~use{opacity:.1}#u:target~use{opacity:.3}text{fill:#ffd800;text-anchor:middle}text,textPath{dominant-baseline:central}</style>
    <defs>
        <path d="M43 256a213 213 0 10426 0" id="a"/>
        <path d="M43 256a213 213 0 01426 0" id="b"/>
        <path d="M306 90c9 37 15 75 18 114v-1c-55-35-114-63-178-81 0 0 44-40 110-40 17 0 34 3 50 8" id="r"/>
        <g id="c">
            <circle cx="256" cy="256" r="248" fill="#0621C6" stroke="#fc0" stroke-width="10"/>
            <circle cx="256" cy="256" r="184" fill="#FC0"/>
            <use xlink:href="#r"/>
            <use xlink:href="#r" transform="rotate(60 256.406 256.109)"/>
            <use xlink:href="#r" transform="rotate(120 256.235 255.937)"/>
            <use xlink:href="#r" transform="rotate(180 256 256)"/>
            <use xlink:href="#r" transform="rotate(-120 255.937 256.235)"/>
            <use xlink:href="#r" transform="rotate(-60 256.109 256.406)"/>
            <text textLength="670">
                <textPath xlink:href="#a" startOffset="50%" style="font:700 44px Arial,sans-serif">FIAT JUSTITIA RUAT CAELUM</textPath>
            </text>
            <text textLength="500">
                <textPath xlink:href="#b" startOffset="50%" style="font:58px 'Arial Black',sans-serif">IDENTIGRAF</textPath>
            </text>
        </g>
    </defs>
    <g id="t"/>
    <g id="u"/>
    <use xlink:href="#c"/>
</svg>
